PathFileType	4	(X/Y/Z)	TVC_60_Cal_03_0_static_RCNL2025.trc
DataRate	CameraRate	NumFrames	NumMarkers	Units	OrigDataRate	OrigDataStartFrame	OrigNumFrames
100	100	6	27	mm	100	222	354
Frame#	Time	R_Shoulder			L_Shoulder			C7			J_Notch			R_Elbow			L_Elbow			R_Wrist			L_Wrist			R_Asis			L_Asis			R_Psis			L_Psis			Sacral			Thoracic			Sternum			R_Thigh_Lateral			R_Knee_Lateral			R_Shank_Lateral			R_Ankle_Lateral			R_Heel			R_Toe			L_Thigh_Lateral			L_Knee_Lateral			L_Shank_Lateral			L_Ankle_Lateral			L_Heel			L_Toe		
		X1	Y1	Z1	X2	Y2	Z2	X3	Y3	Z3	X4	Y4	Z4	X5	Y5	Z5	X6	Y6	Z6	X7	Y7	Z7	X8	Y8	Z8	X9	Y9	Z9	X10	Y10	Z10	X11	Y11	Z11	X12	Y12	Z12	X13	Y13	Z13	X14	Y14	Z14	X15	Y15	Z15	X16	Y16	Z16	X17	Y17	Z17	X18	Y18	Z18	X19	Y19	Z19	X20	Y20	Z20	X21	Y21	Z21	X22	Y22	Z22	X23	Y23	Z23	X24	Y24	Z24	X25	Y25	Z25	X26	Y26	Z26	X27	Y27	Z27
222	2.21000000	-273.404694	1346.804443	-47.678345	-293.864716	1353.891968	-393.850922	-329.890747	1408.178467	-227.050400	-212.172623	1286.364258	-227.141525	-314.285980	1005.484802	16.503923	-326.308258	1004.610962	-434.776642	-250.326660	789.113586	82.433746	-226.345528	794.913635	-473.047729	NaN	NaN	NaN	-208.994537	918.133057	-361.062256	-369.637299	913.221619	-143.902969	-378.603363	912.228943	-253.131805	-374.120331	912.725281	-198.517387	-367.510559	1189.670898	-214.939941	-164.413574	1095.816650	-218.932587	-219.388779	603.843445	-7.817916	-239.633957	445.764099	-84.549675	-277.371033	231.342056	-46.048527	-329.774933	65.114525	-115.092697	-371.326630	58.317387	-164.167770	-200.073044	43.165161	-119.716553	-256.689026	631.011047	-410.212555	-245.868469	441.663757	-328.061401	-293.669556	253.845566	-357.657104	-332.881836	60.045799	-278.126434	-376.377808	61.634071	-234.934616	-205.259735	43.490002	-270.935760
223	2.22000000	-272.826263	1346.620728	-47.353149	-294.401947	1353.823486	-393.460876	-330.077576	1408.071533	-226.365250	-211.840271	1286.385254	-226.692245	-313.409729	1005.341248	17.010605	-326.780426	1004.636414	-434.219025	-249.062790	788.997681	82.844543	-227.095116	794.810059	-472.752792	NaN	NaN	NaN	-209.020294	918.269104	-360.995209	-369.207642	913.033997	-143.346970	-378.415985	911.992676	-252.515747	-373.811813	912.513336	-197.931358	-367.373688	1189.569946	-214.231827	-164.182724	1095.813965	-218.897339	NaN	NaN	NaN	-239.265213	445.436646	-84.393120	-277.277283	231.418701	-46.006145	-329.782898	65.266624	-115.027771	-371.458435	58.480999	-164.141525	-200.092453	43.220276	-119.694992	-257.049103	630.329468	-410.422821	-245.756546	441.751617	-327.740631	-293.566895	253.982452	-357.670197	-332.820312	60.063622	-278.143707	-376.299561	61.670372	-234.843536	-205.314224	43.406475	-270.927856
224	2.23000000	-272.168640	1346.395508	-47.013165	-294.885468	1353.757690	-392.979126	-330.338745	1408.099121	-225.361267	-211.940384	1286.347900	-226.621109	-312.535278	1005.321045	17.491144	-327.110748	1004.598083	-433.681396	-247.928421	789.082092	82.987457	-227.714958	794.686249	-472.467804	NaN	NaN	NaN	-209.231064	918.500305	-360.940155	-368.799561	913.031433	-142.890457	-378.250000	911.902954	-252.017944	-373.524780	912.467194	-197.454201	-367.218384	1189.424805	-213.572937	-163.933044	1095.861572	-218.753067	NaN	NaN	NaN	-238.778915	446.112183	-84.632103	-276.981567	231.331421	-45.967548	-329.701691	65.238075	-115.065598	-371.484161	58.570202	-164.129852	-200.101013	43.163868	-119.736557	-257.028992	630.372803	-410.261871	-245.474335	441.793640	-327.636414	-293.553650	254.061111	-357.637054	-332.857025	60.094429	-278.044952	-376.446625	61.990265	-234.796494	-205.282715	43.477688	-270.973297
225	2.24000000	-271.447906	1346.327881	-46.450737	-295.351105	1353.671143	-392.516907	-330.700470	1407.982422	-224.475342	-212.084900	1286.062134	-225.893356	-311.647064	1005.205444	17.941402	-327.656708	1004.552063	-432.914520	-246.556870	789.021362	83.255432	-228.422424	794.629822	-472.163773	NaN	NaN	NaN	-209.295929	918.568970	-360.825562	-368.420044	912.846741	-142.345703	-378.006500	911.677673	-251.430405	-373.213272	912.262207	-196.888054	-367.006073	1189.344849	-212.944794	-163.571335	1095.843018	-218.336700	-217.467270	603.673828	-7.164654	-238.608276	446.084198	-84.359650	-276.786774	231.267014	-45.965027	-329.591309	65.312790	-114.971916	-371.371277	58.664104	-164.012741	-200.040604	43.180706	-119.713814	-256.931030	630.480774	-410.065430	-245.389893	441.870636	-327.585571	-293.543854	254.117935	-357.547943	-332.877777	60.147179	-278.068512	-376.318329	61.815083	-234.798340	-205.201004	43.555717	-270.940643
226	2.25000000	-270.805267	1346.301270	-46.053951	-295.765472	1353.603271	-392.009308	-330.601166	1407.709473	-223.842346	-211.914169	1286.083984	-225.642395	-310.661102	1005.110291	18.615267	-328.159241	1004.575989	-432.195892	-245.187820	788.988342	83.454765	-229.085587	794.545258	-471.833145	NaN	NaN	NaN	-209.385574	918.727173	-360.778381	-367.926361	912.660828	-141.893692	-377.772430	911.603210	-250.899872	-372.849396	912.132019	-196.396782	-366.778473	1189.274536	-212.220520	-163.337006	1095.802490	-218.266129	-216.602188	603.930847	-7.269633	-238.169449	446.112000	-84.298706	-276.594574	231.349411	-45.908012	-329.663208	65.302681	-115.082932	-371.442505	58.728554	-164.037125	-200.052307	43.256172	-119.724823	-256.930206	630.551575	-409.926941	-244.599731	441.819672	-326.862640	-293.472321	254.185623	-357.473328	-332.820557	60.155949	-278.067627	-376.336914	62.033508	-234.706802	-205.224792	43.543049	-270.940277
227	2.26000000	-270.482483	1346.237427	-45.362904	-296.228577	1353.518555	-391.593048	-330.669556	1407.540283	-223.123215	-212.071579	1285.909790	-225.113037	-309.611664	1005.083923	19.160381	-328.627563	1004.611267	-431.450653	-244.086365	788.915283	83.717331	-229.772942	794.429901	-471.479111	NaN	NaN	NaN	-209.456360	918.754639	-360.627441	-367.581146	912.550049	-141.231216	-377.597626	911.474915	-250.295670	-372.589386	912.012482	-195.763443	-366.675903	1189.153931	-211.454880	-163.199066	1095.833618	-218.240158	-216.057831	603.802429	-7.145323	-237.920349	446.038696	-84.151215	-276.406891	231.186340	-45.771427	-329.670563	65.257202	-115.044601	-371.401276	58.795475	-163.983063	-199.967484	43.280563	-119.684464	-256.909698	630.642334	-409.666473	-244.930038	441.868561	-327.039612	-293.476654	254.238449	-357.335052	-332.841156	60.207474	-278.070770	-376.405304	62.024281	-234.645447	-205.259323	43.586147	-270.923309
